<?xml version="1.0" encoding="utf-8"?>
<!-- Generated by IcoMoon.io -->
<!DOCTYPE svg PUBLIC "-//W3C//DTD SVG 1.1//EN" "http://www.w3.org/Graphics/SVG/1.1/DTD/svg11.dtd">
<svg version="1.1" xmlns="http://www.w3.org/2000/svg" xmlns:xlink="http://www.w3.org/1999/xlink" width="512" height="512" viewBox="0 0 512 512">
<g>
</g>
	<path d="M243.251 42.875l75.591 153.139 169.042 24.576-7.885-24.228-122.296 119.245 1.239 7.363 27.597 160.963 20.664-14.961-151.214-79.462-6.615 3.44-144.548 76.022 20.603 14.961 27.607-160.962 1.28-7.363-5.335-5.223-116.982-114.022-7.875 24.228 168.99-24.576 3.328-6.686 72.254-146.452h-25.447zM181.678 168.99l-190.095 27.618 20.572 20.091 116.992 114.012-4.096-12.575-27.607 160.983-4.874 28.365 170.035-89.406h-13.23l170.056 89.406-4.864-28.365-27.648-160.962-4.055 12.565 137.574-134.103-190.096-27.618 10.68 7.762-85.053-172.237-12.728 25.774-72.274 146.452 10.711-7.762z" fill="#000000" />
	<path d="M259.512 138.137l41.452 83.999 92.713 13.445-67.092 65.424 15.831 92.313-82.903-43.602-82.934 43.602 15.821-92.313-67.082-65.423 92.723-13.445z" fill="#000000" />
</svg>
